# xmcd CD database file
#
# Track frame offsets:
#	154
#	14751
#	26824
#	42494
#	54169
#	67303
#	76940
#	90107
#	106218
#	119635
#	130881
#	143075
#	154097
#	165734
#	177225
#	188085
#	202946
#	214803
#	228508
#	242186
#	255209
#	263917
#	280481
#	296484
#	305849
#
# Disc length: 4278 seconds
#
# Revision: 3
# Processed by: cddbd v1.4PL0 Copyright (c) Steve Scherf et al.
# Submitted via: CDex 1.40Release
#
DISCID=6d10b419
DTITLE=Artiste variés - 25 Super Country Hits Vol.4
DYEAR=1900
DGENRE=Country
TTITLE0=Je pleure toutes les larmes de mon coeur
TTITLE1=Dis lui
TTITLE2=Comment j'vas faire
TTITLE3=Milles après Milles
TTITLE4=Oh belle maman
TTITLE5=Allons y chantons
TTITLE6=L'hotel et la boisson
TTITLE7=Juliana
TTITLE8=Répond-moi
TTITLE9=Mon vieux chapeau
TTITLE10=A toutes les Bourque et les Babin
TTITLE11=L'homme a la canne blanche
TTITLE12=Si j'avais un char
TTITLE13=L'enfant Do
TTITLE14=Partir
TTITLE15=Mal d'amour
TTITLE16=Pourquoi ne pas dire que tu m'aimes
TTITLE17=Un problème de boisson
TTITLE18=L'express de nuit
TTITLE19=Je chante des chansons d'amour
TTITLE20=A mon père
TTITLE21=Pourrais-tu m'aimer toujours
TTITLE22=J'ai gravé ton nom
TTITLE23=Pardonner, oublier
TTITLE24=Don Carmellon
EXTD=ID3G: 2
EXTT0=
EXTT1=
EXTT2=
EXTT3=
EXTT4=
EXTT5=
EXTT6=
EXTT7=
EXTT8=
EXTT9=
EXTT10=
EXTT11=
EXTT12=
EXTT13=
EXTT14=
EXTT15=
EXTT16=
EXTT17=
EXTT18=
EXTT19=
EXTT20=
EXTT21=
EXTT22=
EXTT23=
EXTT24=
PLAYORDER=
